# xmcd
#
# Track frame offsets:
#	150
#	22797
#	38787
#	55547
#	74602
#	88182
#	99525
#	116665
#	135672
#	158062
#	176605
#
# Disc length: 2802
#
# Revision: 2
# Processed by: cddbd v1.5.1PL0 Copyright (c) Steve Scherf et al.
# Submitted via: CDex 1.50
# Normalized: r1:DSETVAR1
#
DISCID=8a0af00b
DTITLE=Various Artist - New Orleans Rythm and Southern Soul - Vol. 02
DYEAR=1994
DGENRE=Blues
TTITLE0=Bobby King and Terry Evans - One Way Ticket To Memphis
TTITLE1=The Holmes Brothers - Up Above My Head
TTITLE2=Marcia Ball - LaTiDa
TTITLE3=Geno Delafose - French Rockin Boogie
TTITLE4=Zachary Richard - Battle Of New Orleans
TTITLE5=Johnny J. and The Hitmen - Wandering Kind
TTITLE6=Tracy Nelson - In The Here and Now
TTITLE7=Ann Peebles - Read Me My Rights
TTITLE8=Johnny Adams - Danger Zone
TTITLE9=Rory Block - Lovin´ Whiskey
TTITLE10=Bobby King and Terry Evans - Dark End Of The Street
EXTD=YEAR: 1994
EXTT0=
EXTT1=
EXTT2=
EXTT3=
EXTT4=
EXTT5=
EXTT6=
EXTT7=
EXTT8=
EXTT9=
EXTT10=
PLAYORDER=
